<svg width="14" height="23" viewBox="0 0 14 23" fill="none" xmlns="http://www.w3.org/2000/svg">
<path d="M7.14583 0.729164C6.94111 0.729189 6.75802 0.856589 6.68685 1.04854L0.932332 11.959C0.834058 12.1147 0.781693 12.295 0.78125 12.4792C0.78125 13.0199 1.21964 13.4583 1.76042 13.4583H6.65625V21.7812C6.65625 22.0516 6.87544 22.2708 7.14583 22.2708C7.32954 22.271 7.49791 22.1684 7.58187 22.005L13.3785 11.0123L13.3765 11.0104C13.4634 10.8618 13.5096 10.693 13.5104 10.5208C13.5104 9.98005 13.072 9.54166 12.5312 9.54166H7.63542V1.21875C7.63542 0.948358 7.41622 0.729164 7.14583 0.729164Z" fill="url(#paint0_linear_4_645)"/>
<defs>
<linearGradient id="paint0_linear_4_645" x1="0.78125" y1="0.729164" x2="0.78125" y2="22.2708" gradientUnits="userSpaceOnUse">
<stop stop-color="#AF52DE"/>
<stop offset="1" stop-color="#BF5AF2"/>
</linearGradient>
</defs>
</svg>
