<svg width="20" height="19" viewBox="0 0 20 19" fill="none" xmlns="http://www.w3.org/2000/svg">
<path d="M1.51325 0.000591055C0.963662 0.000735433 0.468963 0.333957 0.262159 0.843303C0.0553547 1.35265 0.177685 1.93655 0.57153 2.31998L7.72012 9.47077L0.57153 16.6216C0.218707 16.9604 0.0765819 17.4636 0.199967 17.937C0.323353 18.4105 0.692969 18.7802 1.16627 18.9036C1.63957 19.0271 2.14259 18.8849 2.48134 18.532L9.62993 11.3812L16.7785 18.532C17.1173 18.8849 17.6203 19.0271 18.0936 18.9036C18.5669 18.7802 18.9365 18.4105 19.0599 17.937C19.1833 17.4636 19.0412 16.9604 18.6883 16.6216L11.5397 9.47077L18.6883 2.31998C19.0878 1.93158 19.2079 1.33772 18.9908 0.824543C18.7737 0.311371 18.2639 -0.0158349 17.707 0.000591055C17.3562 0.0110493 17.0231 0.15774 16.7785 0.409585L9.62993 7.56037L2.48134 0.409585C2.22706 0.148122 1.8779 0.000612319 1.51325 0.000591055Z" fill="url(#paint0_linear_4_633)"/>
<defs>
<linearGradient id="paint0_linear_4_633" x1="0.15625" y1="0" x2="0.15625" y2="18.9474" gradientUnits="userSpaceOnUse">
<stop stop-color="#8E8E93"/>
<stop offset="1" stop-color="#AEAEB2"/>
</linearGradient>
</defs>
</svg>
