<svg width="21" height="21" viewBox="0 0 21 21" fill="none" xmlns="http://www.w3.org/2000/svg">
<path d="M2.33337 0.708336C2.20804 0.708336 2.08318 0.756789 1.98722 0.851769C1.79629 1.04271 1.79629 1.35313 1.98722 1.54407L3.89392 3.45077C2.03475 5.23201 0.864624 7.7275 0.864624 10.5C0.864624 15.8965 5.25978 20.2917 10.6563 20.2917C16.0528 20.2917 20.448 15.8965 20.448 10.5C20.448 5.47111 16.6356 1.31306 11.7426 0.771446C11.7102 0.767912 11.6776 0.765997 11.645 0.765709C11.1232 0.760681 10.6892 1.16566 10.6581 1.68653C10.6269 2.20739 11.0097 2.66117 11.5284 2.7183C15.4459 3.15194 18.4896 6.45789 18.4896 10.5C18.4896 14.8384 14.9947 18.3333 10.6563 18.3333C6.31793 18.3333 2.82296 14.8384 2.82296 10.5C2.82296 8.25824 3.77031 6.25472 5.2747 4.83155L6.88306 6.4399C7.07399 6.63084 7.38442 6.63084 7.57536 6.4399C7.67132 6.34492 7.71879 6.21909 7.71879 6.09375V1.6875C7.71879 1.14672 7.2804 0.708336 6.73962 0.708336H2.33337Z" fill="url(#paint0_linear_4_641)"/>
<defs>
<linearGradient id="paint0_linear_4_641" x1="0.864624" y1="0.708336" x2="0.864624" y2="20.2917" gradientUnits="userSpaceOnUse">
<stop stop-color="#FF9500"/>
<stop offset="1" stop-color="#FF9F0A"/>
</linearGradient>
</defs>
</svg>
